<svg xmlns="http://www.w3.org/2000/svg" width="92.676" height="96.939" viewBox="0 0 92.676 96.939">
  <g id="Group_112" data-name="Group 112" transform="translate(322.669 -2912.957)">
    <g id="Book_It_Icon" data-name="Book It Icon" transform="translate(-327.606 2911.767)">
      <path id="Path_814" data-name="Path 814" d="M92.613,28.037v63.49a4.934,4.934,0,0,1-4.932,4.933H11.539a4.933,4.933,0,0,1-4.933-4.933V19.1a4.932,4.932,0,0,1,4.934-4.933h57.5" fill="none" stroke="#000" stroke-linecap="round" stroke-linejoin="round" stroke-width="3.338"/>
      <g id="Group_1564" data-name="Group 1564">
        <line id="Line_80" data-name="Line 80" y2="10.859" transform="translate(20.901 11.096)" fill="none" stroke="#000" stroke-linecap="round" stroke-miterlimit="10" stroke-width="3.338"/>
        <line id="Line_81" data-name="Line 81" y2="10.859" transform="translate(39.595 11.096)" fill="none" stroke="#000" stroke-linecap="round" stroke-miterlimit="10" stroke-width="3.338"/>
        <line id="Line_82" data-name="Line 82" y2="10.859" transform="translate(58.289 11.096)" fill="none" stroke="#000" stroke-linecap="round" stroke-miterlimit="10" stroke-width="3.338"/>
      </g>
      <line id="Line_83" data-name="Line 83" x2="60.285" transform="translate(19.467 36.076)" fill="none" stroke="#f9a61c" stroke-linejoin="round" stroke-width="3.338"/>
      <g id="Group_1565" data-name="Group 1565">
        <line id="Line_84" data-name="Line 84" x2="11.197" transform="translate(44.011 50.875)" fill="none" stroke="#f9a61c" stroke-linejoin="round" stroke-width="3.338"/>
        <line id="Line_85" data-name="Line 85" x2="11.197" transform="translate(68.555 50.875)" fill="none" stroke="#000" stroke-linecap="round" stroke-miterlimit="10" stroke-width="3.338"/>
      </g>
      <g id="Group_1566" data-name="Group 1566">
        <line id="Line_86" data-name="Line 86" x2="11.197" transform="translate(44.011 65.673)" fill="none" stroke="#000" stroke-linecap="round" stroke-miterlimit="10" stroke-width="3.338"/>
        <line id="Line_87" data-name="Line 87" x2="11.197" transform="translate(19.467 65.673)" fill="none" stroke="#000" stroke-linecap="round" stroke-miterlimit="10" stroke-width="3.338"/>
        <path id="Line_88" data-name="Line 88" d="M0,0H11.2" transform="translate(68.555 65.673)" fill="none" stroke="#f9a61c" stroke-width="3.338"/>
      </g>
      <g id="Group_1567" data-name="Group 1567">
        <line id="Line_89" data-name="Line 89" x2="11.197" transform="translate(44.011 80.472)" fill="none" stroke="#f9a61c" stroke-linejoin="round" stroke-width="3.338"/>
        <line id="Line_90" data-name="Line 90" x2="11.197" transform="translate(19.467 80.472)" fill="none" stroke="#f9a61c" stroke-linejoin="round" stroke-width="3.338"/>
      </g>
    </g>
    <g id="siteicon" transform="translate(-253.448 2912.071)">
      <path id="Path_43" data-name="Path 43" d="M19.147.886a5.6,5.6,0,0,1,2.7,1.416,5.616,5.616,0,0,1,1.591,3.729,15.715,15.715,0,0,1-1.681,7.3,21.1,21.1,0,0,1-7.063,9.17c-2.575,1.8-1.76,1.763-4.4.23a21.724,21.724,0,0,1-9.084-10.16A7.466,7.466,0,0,1,.62,7.513a5.282,5.282,0,0,1,6.6-3.4A8.03,8.03,0,0,1,9.943,5.441c.339.253.516.216.783-.1a13.561,13.561,0,0,1,5.067-3.925c.495-.207,1.014-.356,1.521-.531ZM12.489,23.154a2.643,2.643,0,0,0,.195-.286,15.016,15.016,0,0,0,1.393-9.434,9.5,9.5,0,0,0-2.655-5.2c-.3-.292-.432-.25-.6.113a11.18,11.18,0,0,0-.857,3.1,18.365,18.365,0,0,0,.835,7.827A14.294,14.294,0,0,0,12.489,23.154ZM17.762,9.7c.139,0,.241,0,.342,0,1.711-.066,3.021-.854,3.394-2.2A3.7,3.7,0,0,0,20.767,3.9a3.527,3.527,0,0,0-3.51-1.226c-2.3.475-3.872,2.036-5.325,3.745-.21.247-.032.356.125.485a16.6,16.6,0,0,0,2.961,2.028A5.148,5.148,0,0,0,17.762,9.7ZM5.007,11.784a2.688,2.688,0,0,0,2.021-.837A11.752,11.752,0,0,0,9.407,7.294c.144-.306.018-.429-.209-.585A6.433,6.433,0,0,0,5.842,5.556,3.183,3.183,0,0,0,2.356,7.711C1.69,9.826,2.926,11.774,5.007,11.784Z" transform="translate(0 0)" fill="#f9a61c" fill-rule="evenodd"/>
      <path id="Path_46" data-name="Path 46" d="M35.393,11.014a1.43,1.43,0,0,1-1.414,1.455,1.84,1.84,0,0,1-1.7-1.819,1.434,1.434,0,0,1,1.385-1.486A1.831,1.831,0,0,1,35.393,11.014Z" transform="translate(-15.637 -4.061)" fill="#ec2028" fill-rule="evenodd"/>
      <path id="Path_47" data-name="Path 47" d="M7.76,16.906a1.512,1.512,0,0,1,.147-3.011,1.512,1.512,0,0,1,1.343,1.554A1.469,1.469,0,0,1,7.76,16.906Z" transform="translate(-2.959 -6.381)" fill="#ec2028" fill-rule="evenodd"/>
    </g>
  </g>
</svg>
