<svg xmlns="http://www.w3.org/2000/svg" width="7.492" height="8.007" viewBox="0 0 7.492 8.007">
  <path id="icons8-user" d="M11.719,9.938a8.018,8.018,0,0,1-.018-.83,1.621,1.621,0,0,0,.445-.963c.113-.009.292-.119.344-.555a.408.408,0,0,0-.152-.407c.184-.554.567-2.267-.707-2.445a1,1,0,0,0-.9-.347c-1.746.032-1.956,1.319-1.573,2.791A.408.408,0,0,0,9,7.589c.053.436.231.546.344.555a1.616,1.616,0,0,0,.456.963,8.026,8.026,0,0,1-.018.83c-.345.929-2.676.668-2.783,2.459h7.492C14.384,10.606,12.064,10.867,11.719,9.938Z" transform="translate(-7 -4.391)" fill="#fff"/>
</svg>
