<svg xmlns="http://www.w3.org/2000/svg" width="6.037" height="7.466" viewBox="0 0 6.037 7.466">
  <path id="icons8-lock" d="M9.018,3A1.9,1.9,0,0,0,7.112,4.906V5.7H6.477A.468.468,0,0,0,6,6.177V9.99a.468.468,0,0,0,.477.477H11.56a.468.468,0,0,0,.477-.477V6.177A.468.468,0,0,0,11.56,5.7h-.635V4.906A1.9,1.9,0,0,0,9.018,3Zm0,.318a1.58,1.58,0,0,1,1.589,1.589V5.7H7.43V4.906A1.58,1.58,0,0,1,9.018,3.318Zm0,3.971a.468.468,0,0,1,.477.477.451.451,0,0,1-.159.348V8.56a.318.318,0,0,1-.635,0V8.113a.451.451,0,0,1-.159-.348A.468.468,0,0,1,9.018,7.289Z" transform="translate(-6 -3)" fill="#fff"/>
</svg>
