<svg xmlns="http://www.w3.org/2000/svg" width="22" height="27" fill="none" viewBox="0 0 22 27">
    <g filter="url(#prefix__filter0_d)">
        <path fill="#fff" d="M4.389 7h1.167V5.444C5.556 2.442 7.998 0 11 0s5.444 2.442 5.444 5.444V7h1.167c.215 0 .389.174.389.389v9.722c0 .858-.698 1.556-1.556 1.556H5.556C4.698 18.667 4 17.969 4 17.11V7.39C4 7.174 4.174 7 4.389 7zm5.447 8.124c-.013.11.023.22.096.302.074.082.18.13.29.13h1.556c.11 0 .216-.047.29-.13.073-.082.109-.193.096-.302l-.245-2.206c.398-.29.636-.748.636-1.251 0-.858-.697-1.556-1.555-1.556s-1.556.698-1.556 1.556c0 .502.239.96.637 1.25l-.245 2.207zM7.889 7h6.222V5.444c0-1.715-1.396-3.11-3.111-3.11-1.715 0-3.111 1.395-3.111 3.11V7z"/>
    </g>
    <defs>
        <filter id="prefix__filter0_d" width="22" height="26.667" x="0" y="0" color-interpolation-filters="sRGB" filterUnits="userSpaceOnUse">
            <feFlood flood-opacity="0" result="BackgroundImageFix"/>
            <feColorMatrix in="SourceAlpha" values="0 0 0 0 0 0 0 0 0 0 0 0 0 0 0 0 0 0 127 0"/>
            <feOffset dy="4"/>
            <feGaussianBlur stdDeviation="2"/>
            <feColorMatrix values="0 0 0 0 0 0 0 0 0 0 0 0 0 0 0 0 0 0 0.55 0"/>
            <feBlend in2="BackgroundImageFix" result="effect1_dropShadow"/>
            <feBlend in="SourceGraphic" in2="effect1_dropShadow" result="shape"/>
        </filter>
    </defs>
</svg>
