<svg xmlns="http://www.w3.org/2000/svg" width="99.293" height="82.326" viewBox="0 0 99.293 82.326">
  <g id="Love_It_Icon" data-name="Love It Icon" transform="translate(-0.351 -9.403)">
    <g id="Group_1571" data-name="Group 1571">
      <g id="Group_1569" data-name="Group 1569">
        <path id="Path_816" data-name="Path 816" d="M32.372,89.208A214.857,214.857,0,0,0,59.021,60.846c2.866-3.693,5.738-7.674,5.436-12.854-.363-6.22-5.278-13.933-13.607-15.106-7.5-1.056-15.307,3.954-17.907,12.161C30.44,36.9,22.749,31.881,15.325,32.874,6.806,34.012,1.946,41.989,1.732,48.184c-.177,5.122,2.83,8.956,5.514,12.281C13.317,67.985,21.642,77.815,32.372,89.208Z" fill="none" stroke="#000" stroke-linecap="round" stroke-linejoin="round" stroke-width="2.75"/>
        <path id="Path_817" data-name="Path 817" d="M16.773,39.023a8.824,8.824,0,0,0-5.674,2.8c-2.4,2.759-2.688,7.109-.624,10.841" fill="none" stroke="#f9a61c" stroke-linecap="round" stroke-linejoin="round" stroke-width="2.75"/>
      </g>
      <g id="Group_1570" data-name="Group 1570">
        <path id="Path_818" data-name="Path 818" d="M71.354,62.469A210.566,210.566,0,0,0,92.818,38.892c2.866-3.694,5.737-7.674,5.435-12.855-.362-6.219-5.277-13.932-13.607-15.1-7.5-1.056-15.306,3.954-17.906,12.161-2.5-8.147-10.194-13.166-17.619-12.174C40.6,12.058,35.743,20.035,35.529,26.23a12.129,12.129,0,0,0,.053,1.57" fill="none" stroke="#000" stroke-linecap="round" stroke-linejoin="round" stroke-width="2.75"/>
      </g>
      <path id="Path_819" data-name="Path 819" d="M89,32.563a9.263,9.263,0,0,0,1.4-8.541,9.258,9.258,0,0,0-6.6-5.56" fill="none" stroke="#f9a61c" stroke-linecap="round" stroke-linejoin="round" stroke-width="2.75"/>
    </g>
    <g id="siteicon" transform="translate(52.277 67.863)">
      <path id="Path_43" data-name="Path 43" d="M19.147.886a5.6,5.6,0,0,1,2.7,1.416,5.616,5.616,0,0,1,1.591,3.729,15.715,15.715,0,0,1-1.681,7.3,21.1,21.1,0,0,1-7.063,9.17c-2.575,1.8-1.76,1.763-4.4.23a21.724,21.724,0,0,1-9.084-10.16A7.466,7.466,0,0,1,.62,7.513a5.282,5.282,0,0,1,6.6-3.4A8.03,8.03,0,0,1,9.943,5.441c.339.253.516.216.783-.1a13.561,13.561,0,0,1,5.067-3.925c.495-.207,1.014-.356,1.521-.531ZM12.489,23.154a2.643,2.643,0,0,0,.195-.286,15.016,15.016,0,0,0,1.393-9.434,9.5,9.5,0,0,0-2.655-5.2c-.3-.292-.432-.25-.6.113a11.18,11.18,0,0,0-.857,3.1,18.365,18.365,0,0,0,.835,7.827A14.294,14.294,0,0,0,12.489,23.154ZM17.762,9.7c.139,0,.241,0,.342,0,1.711-.066,3.021-.854,3.394-2.2A3.7,3.7,0,0,0,20.767,3.9a3.527,3.527,0,0,0-3.51-1.226c-2.3.475-3.872,2.036-5.325,3.745-.21.247-.032.356.125.485a16.6,16.6,0,0,0,2.961,2.028A5.148,5.148,0,0,0,17.762,9.7ZM5.007,11.784a2.688,2.688,0,0,0,2.021-.837A11.752,11.752,0,0,0,9.407,7.294c.144-.306.018-.429-.209-.585A6.433,6.433,0,0,0,5.842,5.556,3.183,3.183,0,0,0,2.356,7.711C1.69,9.826,2.926,11.774,5.007,11.784Z" transform="translate(0 0)" fill="#f9a61c" fill-rule="evenodd"/>
      <path id="Path_46" data-name="Path 46" d="M35.393,11.014a1.43,1.43,0,0,1-1.414,1.455,1.84,1.84,0,0,1-1.7-1.819,1.434,1.434,0,0,1,1.385-1.486A1.831,1.831,0,0,1,35.393,11.014Z" transform="translate(-15.637 -4.061)" fill="#ec2028" fill-rule="evenodd"/>
      <path id="Path_47" data-name="Path 47" d="M7.76,16.906a1.512,1.512,0,0,1,.147-3.011,1.512,1.512,0,0,1,1.343,1.554A1.469,1.469,0,0,1,7.76,16.906Z" transform="translate(-2.959 -6.381)" fill="#ec2028" fill-rule="evenodd"/>
    </g>
  </g>
</svg>
