<svg xmlns="http://www.w3.org/2000/svg" width="50" height="50" fill="none" viewBox="0 0 50 50">
    <path fill="#fff" d="M46.667 0H30c-1.84 0-3.333 1.492-3.333 3.333v10c0 1.841 1.492 3.334 3.333 3.334h.514l-.507 4.063c-.043.343.13.677.436.839.305.162.678.119.939-.108l5.481-4.794h9.804c1.84 0 3.333-1.493 3.333-3.334v-10C50 1.493 48.508 0 46.667 0zm1.666 13.333c0 .92-.746 1.667-1.666 1.667H36.55c-.202 0-.396.073-.548.206l-4.07 3.56.353-2.83c.03-.237-.044-.475-.202-.654-.158-.18-.386-.282-.624-.282H30c-.92 0-1.666-.746-1.666-1.667v-10c0-.92.746-1.666 1.666-1.666h16.667c.92 0 1.666.746 1.666 1.666v10z"/>
    <path fill="#fff" d="M32.5 5.833c-1.38 0-2.5 1.12-2.5 2.5s1.12 2.5 2.5 2.5 2.5-1.12 2.5-2.5-1.12-2.5-2.5-2.5zm0 3.334c-.46 0-.834-.374-.834-.834 0-.46.374-.833.834-.833.46 0 .833.373.833.833 0 .46-.373.834-.833.834zM38.333 5.833c-1.38 0-2.5 1.12-2.5 2.5s1.12 2.5 2.5 2.5 2.5-1.12 2.5-2.5-1.12-2.5-2.5-2.5zm0 3.334c-.46 0-.834-.374-.834-.834 0-.46.373-.833.834-.833.46 0 .833.373.833.833 0 .46-.373.834-.833.834zM44.167 5.833c-1.381 0-2.5 1.12-2.5 2.5s1.119 2.5 2.5 2.5c1.38 0 2.5-1.12 2.5-2.5s-1.12-2.5-2.5-2.5zm0 3.334c-.46 0-.834-.374-.834-.834 0-.46.373-.833.834-.833.46 0 .833.373.833.833 0 .46-.373.834-.833.834zM46.667 29.167h-7.304l-5.481-4.795c-.26-.227-.634-.27-.94-.108-.305.163-.478.496-.435.84l.507 4.063H32.5c-1.84 0-3.333 1.492-3.333 3.333V40c0 1.84 1.492 3.333 3.333 3.333h14.167C48.507 43.333 50 41.841 50 40v-7.5c0-1.841-1.492-3.333-3.333-3.333zM48.333 40c0 .92-.746 1.666-1.666 1.666H32.5c-.92 0-1.666-.746-1.666-1.666v-7.5c0-.92.746-1.667 1.666-1.667h1.458c.24 0 .467-.102.625-.282.158-.179.232-.417.202-.654l-.353-2.83 4.068 3.56c.152.134.348.207.55.206h7.617c.92 0 1.666.746 1.666 1.667V40zM3.333 29.166H5.52c.558.963 1.273 1.827 2.114 2.555C3.436 34.08.836 38.518.834 43.333V47.5c0 1.38 1.119 2.5 2.5 2.5H25c1.38 0 2.5-1.12 2.5-2.5v-4.167c-.01-4.813-2.605-9.25-6.797-11.616.84-.728 1.553-1.59 2.11-2.55H25c1.84 0 3.333-1.493 3.333-3.334V22.5c-.003-1.173-.625-2.258-1.636-2.854-1.9-5.287-6.913-8.813-12.53-8.813-5.618 0-10.632 3.526-12.531 8.813C.626 20.242.003 21.326 0 22.5v3.333c0 1.841 1.492 3.333 3.333 3.333zm0-1.666c-.92 0-1.666-.747-1.666-1.667V22.5c0-.92.746-1.667 1.666-1.667H4.75c-.778 2.154-.778 4.513 0 6.667H3.333zm2.5-3.334c0-3.276 1.918-6.248 4.903-7.597 2.986-1.348 6.485-.823 8.942 1.344s3.417 5.572 2.453 8.703c-1.552.506-3.168.787-4.8.834-.366-.97-1.294-1.614-2.331-1.617h-1.667c-1.38 0-2.5 1.12-2.5 2.5s1.12 2.5 2.5 2.5H15c1.074-.003 2.025-.694 2.36-1.714 1.293-.052 2.578-.22 3.84-.5-1.979 3.138-5.795 4.588-9.359 3.555-3.563-1.032-6.013-4.298-6.008-8.008zm10 4.167c0 .46-.373.833-.833.833h-1.667c-.46 0-.833-.373-.833-.833 0-.46.373-.833.833-.833H15c.46 0 .833.373.833.833zm6.579 6.757c2.198 2.178 3.43 5.148 3.421 8.243V47.5c0 .46-.373.833-.833.833h-4.167v-5c0-.46-.373-.833-.833-.833-.46 0-.834.373-.834.833v5h-10v-5c0-.46-.372-.833-.833-.833-.46 0-.833.373-.833.833v5H3.333c-.46 0-.833-.373-.833-.833v-4.167c.004-4.498 2.593-8.594 6.656-10.526 3.094 1.811 6.924 1.811 10.018 0 1.204.566 2.3 1.339 3.238 2.283zm4.255-9.257c0 .92-.747 1.667-1.667 1.667h-1.417c.778-2.154.778-4.513 0-6.667H25c.92 0 1.666.746 1.666 1.667v3.333zM14.166 12.5c4.503-.002 8.604 2.594 10.528 6.666h-1.882c-1.78-3.093-5.077-5-8.646-5-3.57 0-6.867 1.907-8.647 5H3.638c1.924-4.072 6.025-6.668 10.529-6.666z"/>
    <path fill="#fff" d="M33.333 35h2.5c.46 0 .833-.373.833-.834 0-.46-.373-.833-.833-.833h-2.5c-.46 0-.833.373-.833.833 0 .46.373.834.833.834zM45.833 33.333h-6.667c-.46 0-.833.373-.833.833 0 .46.373.834.833.834h6.667c.46 0 .833-.373.833-.834 0-.46-.373-.833-.833-.833zM45.833 37.5h-2.5c-.46 0-.833.373-.833.833 0 .46.373.833.833.833h2.5c.46 0 .833-.373.833-.833 0-.46-.373-.833-.833-.833zM40 37.5h-6.667c-.46 0-.833.373-.833.833 0 .46.373.833.833.833H40c.46 0 .833-.373.833-.833 0-.46-.373-.833-.833-.833z"/>
</svg>
