<svg xmlns="http://www.w3.org/2000/svg" width="122.882" height="121.6" viewBox="0 0 122.882 121.6">
  <g id="security" transform="translate(0.002)">
    <path id="Path_64" data-name="Path 64" d="M55.15,0A150.859,150.859,0,0,0,73.54,10.06c-1.761,2.207-1.232.63-2.38,3.21-4.811-2.355-11.485-4.979-16-7.86-13.69,10.64-34.44,16.93-51.63,16-1.092,56.567,22.19,86,51.81,96.78,21.19-8,42.312-29.947,48.11-54.78,3.289,0,.809-.29,3.27-.87C99.2,92.59,81.21,111.85,55.34,121.6,19.64,108.59-1.49,76.65.08,17,18.86,18,37.29,13.92,55.15.05Z" fill-rule="evenodd"/>
    <path id="Path_65" data-name="Path 65" d="M40.3,53.09h1.5V49.78a14.28,14.28,0,0,1,3.94-9.88,13.13,13.13,0,0,1,19.18,0,14.25,14.25,0,0,1,4,9.88v3.31h1.49a2.21,2.21,0,0,1,2.21,2.21V78.65a2.22,2.22,0,0,1-2.21,2.21H40.3a2.22,2.22,0,0,1-2.21-2.21V55.3a2.21,2.21,0,0,1,2.21-2.21Zm5.68,0H64.69V49.78a10.07,10.07,0,0,0-2.77-7,9,9,0,0,0-13.17,0,10.07,10.07,0,0,0-2.77,7ZM53.52,68l-2.38,6.25h8.39l-2.21-6.34a4.34,4.34,0,1,0-3.8.09Z" fill-rule="evenodd"/>
    <path id="Path_66" data-name="Path 66" d="M99.23,6.92A23.65,23.65,0,1,1,75.58,30.57,23.65,23.65,0,0,1,99.23,6.92ZM93.79,30a18.482,18.482,0,0,1,1.91,1.85,75.71,75.71,0,0,1,6-8.31c6-7.18,3.25-5.79,11.5-5.79l-1.2,1.3a80,80,0,0,0-7.59,10.12,118.449,118.449,0,0,0-7.77,12.91l-.71,1.38-.66-1.4a34,34,0,0,0-4.39-7.12,24.22,24.22,0,0,0-5.58-5.13c1.07-3.53,6.19-1.72,8.48.22Z" fill="#faa61a" fill-rule="evenodd"/>
  </g>
</svg>
